<svg width="1134" height="172" viewBox="0 0 1134 172" fill="none" xmlns="http://www.w3.org/2000/svg">
<path d="M32.1092 78.1455L33.4672 20.1377L83.0244 50.3176L32.1092 78.1455Z" stroke="#E7E7E7" stroke-width="3" stroke-linejoin="round"/>
<path d="M36.6646 100.854L38.1037 39.3827L90.6196 71.3644L36.6646 100.854Z" stroke="#E7E7E7" stroke-linejoin="round"/>
<path d="M1097.7 131.053C1098.53 130.549 1099.6 130.809 1100.11 131.634L1105.58 140.594L1114.54 135.121C1115.37 134.617 1116.44 134.877 1116.95 135.702C1117.45 136.527 1117.19 137.604 1116.37 138.108L1107.41 143.581L1112.88 152.542C1113.38 153.367 1113.12 154.444 1112.3 154.947C1111.47 155.451 1110.4 155.191 1109.89 154.366L1104.42 145.406L1095.46 150.879C1094.63 151.383 1093.56 151.123 1093.05 150.298C1092.55 149.473 1092.81 148.396 1093.63 147.892L1102.59 142.419L1097.12 133.458C1096.62 132.633 1096.88 131.556 1097.7 131.053Z" fill="#E7E7E7"/>
</svg>
